<?xml version="1.0" standalone="no"?>
<!DOCTYPE svg PUBLIC "-//W3C//DTD SVG 20010904//EN"
 "http://www.w3.org/TR/2001/REC-SVG-20010904/DTD/svg10.dtd">
<svg version="1.0" xmlns="http://www.w3.org/2000/svg"
 width="2527.000000pt" height="2527.000000pt" viewBox="0 0 2527.000000 2527.000000"
 preserveAspectRatio="xMidYMid meet">
<metadata>
Created by potrace 1.14, written by Peter Selinger 2001-2017
</metadata>
<g transform="translate(0.000000,2527.000000) scale(0.100000,-0.100000)"
fill="#000000" stroke="none">
<path d="M12625 25060 c-68 -311 -289 -584 -585 -723 -41 -19 -85 -38 -98 -42
-29 -9 -23 -15 20 -22 223 -33 442 -211 565 -459 27 -55 82 -215 99 -289 l7
-30 10 35 c68 242 146 396 260 518 111 117 266 203 407 225 17 3 34 7 36 10 2
2 -27 16 -65 31 -182 71 -369 221 -480 386 -68 100 -104 182 -160 370 -8 24
-8 24 -16 -10z"/>
<path d="M14757 23503 c-3 -3 -1 -11 6 -18 67 -70 151 -185 190 -260 50 -99
58 -149 63 -405 4 -154 10 -256 20 -295 17 -69 76 -197 130 -282 45 -70 84
-151 84 -175 0 -15 -6 -17 -37 -13 -279 40 -607 137 -903 267 -100 44 -287
144 -327 174 -17 13 -35 24 -38 24 -4 0 -37 23 -74 52 -205 161 -302 325 -302
510 0 155 62 257 176 290 175 52 385 -77 385 -236 0 -37 -33 -98 -69 -128 -62
-52 -160 -44 -207 17 -46 60 -112 35 -78 -30 34 -65 97 -99 189 -99 59 -1 77
3 116 26 160 94 174 301 28 432 -110 99 -261 134 -399 93 -206 -61 -285 -346
-169 -605 79 -175 248 -336 504 -479 91 -50 241 -122 330 -158 39 -15 79 -31
90 -36 98 -43 501 -159 600 -173 22 -3 54 -7 70 -10 17 -3 47 -8 69 -11 l38
-6 -23 -26 c-36 -38 -85 -59 -194 -82 -135 -29 -188 -47 -265 -88 -52 -28
-198 -130 -220 -153 -3 -3 -44 -39 -92 -79 -49 -40 -88 -74 -88 -76 0 -2 42
-4 93 -4 109 -2 140 -4 147 -11 3 -3 30 -13 60 -23 30 -10 118 -53 195 -95
228 -124 286 -153 297 -146 6 4 8 3 5 -2 -3 -6 29 -21 71 -34 112 -35 242 -34
331 3 36 15 66 27 68 27 2 0 -11 -21 -29 -47 -59 -87 -77 -147 -78 -255 0 -53
9 -149 20 -213 11 -64 20 -132 20 -151 0 -19 5 -34 10 -34 6 0 38 29 71 64 35
38 116 102 194 156 174 119 240 188 304 323 46 95 134 357 162 482 7 30 16 55
20 55 14 0 219 -89 339 -148 275 -133 527 -289 755 -467 50 -38 92 -72 95 -75
3 -3 41 -36 85 -75 151 -132 279 -267 294 -310 7 -22 33 -73 57 -114 40 -66
42 -73 21 -67 -184 53 -409 65 -567 31 -14 -3 -41 -8 -60 -11 -45 -8 -217 -67
-286 -98 -85 -39 -165 -99 -275 -205 l-104 -101 66 0 c113 0 263 -48 365 -117
64 -43 149 -127 198 -196 60 -84 152 -187 210 -235 80 -66 138 -92 252 -112
125 -22 168 -35 213 -66 86 -58 93 -133 29 -306 -58 -153 -58 -201 -1 -317
l41 -84 25 49 c34 67 101 127 229 203 255 153 414 357 450 577 l11 63 29 -62
c69 -144 180 -451 193 -532 2 -11 10 -51 18 -90 37 -172 49 -386 33 -577 -4
-49 -9 -96 -10 -105 -2 -10 -7 -40 -10 -66 -17 -115 -87 -388 -106 -410 -3 -4
-31 15 -61 41 -77 68 -142 112 -254 174 -108 58 -180 128 -240 230 -59 100
-80 212 -56 296 5 17 6 32 3 32 -9 0 -100 -102 -161 -179 -261 -334 -427 -840
-424 -1295 1 -32 -2 -54 -6 -49 -8 13 -99 67 -136 81 -37 14 -125 30 -151 26
-96 -12 -114 -16 -114 -30 0 -8 4 -14 10 -14 19 0 70 -60 99 -118 17 -33 47
-100 67 -148 96 -233 249 -584 286 -657 67 -135 146 -247 237 -338 102 -102
176 -153 291 -202 113 -48 164 -58 296 -60 l112 -1 -9 -29 c-20 -71 5 -251 42
-302 4 -5 16 -26 27 -47 44 -78 135 -174 242 -254 85 -64 268 -164 299 -164
10 0 22 -5 27 -10 6 -6 21 -13 34 -15 14 -3 52 -13 85 -24 66 -21 124 -29 257
-37 102 -5 208 -31 307 -73 39 -17 71 -27 71 -24 0 4 6 0 13 -9 6 -8 28 -24
46 -34 42 -23 42 -23 163 -122 54 -44 95 -82 93 -84 -3 -3 4 -13 16 -23 26
-24 32 -16 55 78 45 183 -17 396 -175 601 -31 42 -39 57 -25 52 42 -16 172
-24 244 -15 101 12 169 33 263 81 99 49 134 72 268 173 175 132 300 196 461
237 66 16 101 19 192 15 61 -3 124 -9 140 -13 25 -6 28 -4 23 10 -32 83 -217
286 -347 382 -167 123 -385 223 -540 249 -19 3 -51 10 -70 15 -19 5 -48 12
-65 15 -16 3 -34 7 -40 8 -20 5 -160 58 -177 68 -10 5 -22 9 -27 9 -14 0 -121
81 -121 91 0 5 9 13 20 19 11 6 65 47 120 91 343 273 576 623 694 1044 24 87
33 130 41 187 2 15 6 31 9 36 2 4 8 39 11 77 4 39 9 74 12 78 3 5 6 95 8 200
4 171 0 247 -20 422 -8 69 -34 215 -39 224 -3 4 -8 23 -11 42 -10 57 -27 124
-34 131 -4 5 -22 -18 -41 -50 -43 -72 -94 -136 -144 -182 -21 -19 -46 -43 -55
-52 -8 -10 -20 -18 -26 -18 -6 0 -21 -9 -33 -20 -12 -12 -22 -18 -22 -14 0 4
-8 0 -18 -9 -48 -44 -308 -148 -717 -287 -283 -96 -377 -134 -505 -202 -105
-56 -240 -146 -240 -159 0 -5 -5 -9 -12 -9 -21 0 -209 -195 -260 -270 -28 -41
-68 -111 -90 -154 -21 -44 -38 -71 -38 -60 0 37 -40 137 -79 200 l-39 62 34
109 c42 132 80 288 89 368 4 33 9 63 11 67 8 13 18 175 17 293 0 140 -15 314
-33 385 -5 19 -11 51 -14 70 -16 109 -126 432 -192 563 -14 26 -23 47 -21 47
10 0 91 -126 131 -204 61 -118 107 -178 182 -240 94 -78 173 -120 359 -193
231 -90 260 -110 343 -229 10 -16 12 3 8 111 -7 196 -54 349 -133 430 -27 28
-32 38 -24 53 21 40 94 92 204 147 171 85 200 118 303 345 106 234 229 383
376 453 40 19 81 38 91 41 9 3 17 10 17 16 0 23 -118 129 -176 158 -120 61
-146 64 -544 72 -323 6 -373 9 -438 27 -173 49 -275 154 -341 351 -12 34 -39
137 -60 229 -65 281 -90 329 -294 583 -135 168 -188 262 -224 398 -22 84 -26
119 -27 262 -1 169 12 248 50 307 22 35 4 34 -71 -3 -241 -117 -436 -298 -580
-539 -97 -163 -159 -344 -190 -554 -21 -140 -21 -421 0 -575 8 -65 14 -120 13
-122 -2 -1 -39 32 -83 74 -230 220 -500 420 -790 586 -81 46 -314 164 -445
225 -20 9 -6 10 71 5 116 -7 273 10 349 38 73 28 113 56 253 182 87 77 130
109 160 117 55 15 189 6 250 -15 27 -10 51 -15 54 -12 10 10 -48 96 -97 145
-100 100 -233 153 -388 155 l-93 1 37 30 c51 40 110 135 134 213 30 96 27 186
-12 318 -24 81 -32 130 -32 191 -1 75 1 85 29 124 18 26 50 53 78 68 48 24 48
25 25 37 -29 16 -139 18 -210 3 -92 -19 -299 -78 -372 -105 -39 -15 -134 -57
-212 -95 -204 -99 -258 -107 -374 -53 -41 19 -87 58 -185 157 -109 111 -143
139 -210 174 -116 59 -250 99 -473 139 -109 19 -251 46 -317 60 -66 14 -131
28 -144 30 -13 3 -36 11 -51 19 -15 8 -30 12 -33 8z"/>
<path d="M10365 23464 c-66 -18 -145 -36 -175 -40 -30 -3 -57 -8 -60 -9 -3 -2
-26 -6 -50 -10 -25 -3 -53 -8 -63 -11 -11 -4 -29 -7 -40 -9 -50 -5 -114 -17
-142 -25 -16 -5 -43 -11 -58 -14 -39 -7 -136 -35 -172 -51 -16 -7 -49 -20 -72
-30 -24 -10 -43 -22 -43 -27 0 -5 -4 -7 -8 -4 -15 9 -94 -56 -212 -175 -210
-213 -281 -224 -560 -84 -115 58 -330 142 -330 129 0 -2 -8 0 -18 5 -11 6 -32
13 -48 16 -16 3 -33 7 -39 9 -5 1 -28 8 -50 14 -107 30 -227 39 -281 22 l-38
-13 46 -23 c82 -42 125 -116 119 -209 -1 -16 -11 -66 -22 -110 -11 -44 -23
-88 -25 -97 -2 -10 -7 -28 -11 -40 -14 -47 -7 -212 11 -266 22 -66 76 -146
129 -194 l42 -36 -62 4 c-60 4 -198 -17 -232 -36 -9 -5 -32 -16 -51 -23 -63
-25 -153 -103 -199 -171 -24 -36 -42 -69 -39 -72 3 -3 30 3 59 13 38 13 84 18
154 18 115 0 130 -6 215 -86 241 -225 309 -254 585 -253 112 1 144 -2 125 -9
-201 -83 -535 -267 -744 -409 -102 -70 -291 -216 -365 -283 -69 -62 -84 -76
-151 -140 l-62 -60 6 45 c30 195 36 458 16 630 -15 123 -58 292 -103 401 -39
98 -131 259 -173 304 -15 17 -26 32 -25 34 7 7 -147 167 -210 217 -120 95
-329 217 -345 201 -3 -3 1 -16 9 -29 40 -64 52 -129 51 -298 0 -136 -4 -181
-22 -255 -32 -130 -96 -250 -202 -380 -212 -259 -256 -341 -310 -573 -63 -268
-90 -348 -149 -440 -44 -67 -95 -112 -166 -147 -108 -53 -145 -57 -535 -65
-294 -6 -376 -10 -423 -24 -103 -29 -168 -67 -241 -140 -68 -68 -69 -70 -45
-79 149 -58 259 -142 343 -262 51 -71 74 -114 160 -295 81 -172 114 -206 270
-285 113 -57 186 -108 206 -145 8 -14 2 -26 -26 -56 -80 -88 -124 -233 -131
-434 l-4 -135 30 51 c51 87 110 124 320 204 304 115 438 221 548 435 39 77
120 205 129 205 2 0 -17 -43 -42 -96 -76 -164 -164 -451 -191 -619 -2 -16 -6
-41 -9 -55 -26 -147 -20 -514 11 -660 3 -14 8 -45 11 -70 4 -25 10 -56 15 -69
5 -13 12 -39 15 -57 3 -18 23 -88 44 -155 l39 -122 -40 -65 c-43 -72 -79 -161
-79 -195 0 -13 -12 3 -31 43 -17 35 -33 67 -37 70 -4 3 -8 12 -10 20 -13 58
-198 264 -327 365 -198 153 -324 212 -805 377 -595 203 -752 287 -899 484 -25
34 -54 76 -63 93 -9 17 -21 31 -26 31 -9 0 -65 -241 -81 -355 -21 -138 -32
-282 -30 -400 2 -126 23 -372 36 -409 4 -11 6 -24 5 -28 -2 -7 21 -109 38
-173 6 -22 13 -50 15 -62 12 -55 71 -208 120 -310 100 -210 206 -356 399 -548
78 -77 178 -167 223 -200 46 -32 83 -62 83 -67 0 -24 -241 -155 -262 -142 -4
3 -8 1 -8 -4 0 -5 -6 -9 -12 -10 -7 -1 -31 -5 -53 -11 -22 -5 -85 -19 -140
-30 -188 -40 -322 -96 -492 -206 -35 -22 -63 -43 -63 -47 0 -5 -6 -8 -13 -8
-19 0 -197 -170 -254 -243 -54 -68 -96 -137 -89 -144 2 -3 29 1 59 7 87 20
255 8 357 -25 147 -47 243 -103 460 -264 161 -120 320 -192 467 -210 67 -8
197 -1 245 15 16 5 11 -7 -24 -52 -68 -90 -124 -190 -154 -279 -24 -68 -28
-97 -28 -195 -1 -86 4 -128 17 -167 10 -29 21 -53 23 -53 8 0 93 94 94 103 0
4 5 7 10 7 6 0 36 21 68 46 73 59 82 65 118 87 43 26 184 97 184 92 0 -2 18 2
40 10 57 20 139 33 255 40 436 27 884 328 972 655 11 40 14 159 5 191 l-10 37
102 0 c55 1 121 6 146 12 25 6 61 13 80 16 38 5 203 81 208 95 2 5 10 9 18 9
8 0 14 5 14 10 0 6 5 10 10 10 6 0 25 13 43 29 85 78 137 129 137 135 0 3 8
15 18 25 27 30 35 42 78 111 49 78 183 354 188 386 1 7 7 18 14 26 6 8 15 29
18 46 4 18 10 32 15 32 5 0 9 6 9 13 0 19 190 458 213 492 12 17 39 46 61 67
l40 36 -60 8 c-32 4 -63 8 -69 9 -5 0 -41 -5 -80 -12 -73 -13 -118 -32 -172
-72 -18 -13 -34 -22 -34 -20 -1 2 -3 31 -4 64 -3 62 -12 171 -21 264 -3 30 -9
62 -14 71 -5 10 -7 20 -4 22 9 9 -37 198 -76 318 -91 273 -224 509 -398 703
-71 80 -87 92 -72 52 16 -41 12 -137 -8 -202 -37 -119 -150 -258 -254 -313
-71 -37 -215 -129 -238 -151 -53 -51 -110 -90 -114 -78 -62 186 -103 374 -122
564 -7 65 -7 306 0 363 3 28 9 75 12 104 3 28 8 60 10 72 3 12 7 30 9 41 10
57 26 127 45 190 11 39 22 77 24 85 13 49 99 262 144 358 l30 62 7 -47 c11
-78 32 -141 76 -221 84 -157 194 -264 398 -387 119 -73 191 -140 213 -201 6
-19 14 -34 18 -34 3 0 25 44 49 97 53 117 52 146 -8 306 -48 127 -54 199 -20
253 30 49 121 89 255 113 61 10 126 27 145 36 107 55 192 136 306 289 69 93
144 168 218 216 33 22 65 43 70 47 6 5 15 9 20 10 6 1 39 13 75 27 74 27 119
35 205 36 l60 0 -95 93 c-102 99 -180 164 -180 150 0 -4 -4 -3 -8 3 -16 26
-207 111 -312 140 -224 61 -435 65 -639 13 -41 -10 -75 -19 -77 -19 -1 0 17
33 41 73 23 39 49 90 56 112 14 40 175 211 300 316 71 61 151 128 164 137 6 4
30 23 55 43 105 83 328 228 475 309 173 96 543 270 573 270 4 0 17 -39 30 -87
39 -154 111 -365 156 -458 61 -124 133 -201 299 -314 77 -52 160 -119 196
-156 33 -36 65 -65 71 -65 5 0 10 15 10 34 0 19 9 87 20 151 24 139 26 272 5
341 -8 28 -33 78 -55 112 -22 34 -37 62 -34 62 2 0 30 -11 62 -24 31 -13 82
-27 113 -31 61 -8 202 10 207 25 2 6 7 8 12 5 14 -9 152 54 298 136 255 144
337 173 480 171 50 0 92 1 92 2 0 2 -37 34 -82 72 -46 38 -92 77 -103 87 -33
30 -139 107 -148 107 -4 0 -17 9 -29 20 -34 32 -154 76 -283 105 -124 28 -174
48 -213 85 -32 30 -32 29 73 44 103 15 227 42 325 71 30 9 73 21 95 26 22 5
47 12 55 16 8 3 71 25 140 50 402 141 733 340 892 535 54 65 114 182 133 258
19 74 22 191 5 265 -36 158 -165 264 -320 260 -190 -5 -350 -116 -385 -267
-32 -142 68 -286 212 -304 58 -7 125 7 150 32 8 7 20 17 26 21 27 16 56 70 50
91 -9 34 -56 29 -83 -8 -44 -61 -136 -75 -199 -31 -79 56 -99 135 -58 225 75
163 347 214 464 88 28 -30 52 -73 59 -105 34 -154 6 -299 -84 -429 -78 -114
-269 -268 -442 -358 -36 -18 -78 -41 -95 -50 -139 -76 -578 -233 -742 -266
-148 -29 -221 -43 -260 -48 -36 -5 -43 -3 -43 12 1 25 33 93 90 187 125 208
137 255 141 556 1 129 6 241 10 249 4 8 9 29 12 46 6 37 54 151 74 175 7 8 13
19 13 22 0 4 9 17 19 29 143 171 142 169 119 167 -7 -1 -67 -16 -133 -35z"/>
<path d="M12570 22584 c-84 -25 -150 -115 -150 -204 0 -184 229 -284 360 -157
164 160 9 427 -210 361z"/>
<path d="M11645 21363 c-62 -7 -212 -47 -275 -73 -347 -144 -776 -507 -1125
-953 l-60 -77 -9 45 c-11 54 -21 57 -30 11 -8 -43 -81 -146 -220 -311 -58 -68
-113 -139 -122 -157 -9 -18 -20 -35 -25 -38 -4 -3 -30 -52 -58 -110 -27 -58
-51 -103 -51 -100 -1 3 -3 14 -5 24 -6 29 -68 156 -77 156 -4 0 -8 5 -8 11 0
19 -71 102 -132 154 -60 52 -129 94 -235 144 -91 43 -103 46 -103 24 0 -11 5
-24 12 -31 7 -7 9 -12 6 -12 -4 0 0 -16 8 -35 8 -19 12 -35 9 -35 -2 0 0 -12
6 -27 5 -15 23 -95 40 -177 29 -150 62 -273 82 -311 6 -11 12 -26 13 -33 6
-35 76 -131 140 -191 l71 -68 -116 -7 c-310 -17 -569 -145 -711 -351 -47 -69
-107 -201 -132 -290 -18 -69 -21 -106 -21 -265 0 -248 15 -309 154 -590 121
-246 158 -298 234 -335 50 -25 63 -27 128 -22 81 6 384 95 513 150 269 116
477 319 618 604 78 157 99 286 72 443 -30 175 -104 325 -216 436 l-61 61 104
6 c206 11 354 88 465 241 20 28 41 56 47 62 5 6 46 64 90 129 44 64 95 133
112 154 18 20 35 43 38 51 3 8 21 26 40 39 31 21 45 41 29 41 -39 0 -257 -42
-294 -57 -8 -3 -24 -8 -35 -10 -11 -2 -22 -8 -23 -13 -2 -6 -7 -8 -12 -5 -11
7 -101 -39 -174 -88 -32 -22 -88 -69 -124 -104 -36 -36 -62 -57 -58 -47 85
216 104 424 60 637 l-18 85 27 39 c15 21 58 78 96 126 251 316 523 572 796
749 251 163 411 220 625 221 156 2 214 -8 368 -59 98 -32 244 -124 298 -187
65 -75 145 -189 138 -196 -5 -4 -39 -16 -75 -25 -90 -24 -271 -112 -377 -185
-284 -195 -499 -518 -601 -902 -17 -63 -51 -233 -76 -379 -90 -516 -148 -747
-239 -935 -101 -211 -246 -366 -584 -625 -39 -30 -71 -58 -72 -61 0 -9 125
-29 240 -38 356 -28 659 67 880 275 53 50 72 63 68 47 -10 -39 10 -304 32
-414 25 -130 76 -284 106 -318 4 -5 93 59 182 131 233 190 409 396 523 611 36
69 47 84 52 68 7 -27 35 -27 45 -1 6 15 17 1 55 -73 90 -175 242 -362 435
-533 92 -82 248 -204 262 -204 10 0 58 108 80 180 10 36 26 106 35 155 18 103
37 378 28 403 -4 9 26 -14 67 -52 40 -37 106 -90 147 -116 184 -121 461 -181
731 -159 118 9 242 29 242 38 -1 3 -36 33 -78 66 -347 271 -476 409 -577 619
-91 190 -147 406 -236 915 -27 157 -63 338 -80 401 -116 437 -366 778 -714
972 -90 51 -241 113 -298 123 -20 4 -40 12 -43 17 -10 16 135 196 200 249 253
205 650 252 970 117 156 -66 409 -235 581 -387 129 -115 333 -330 445 -470 19
-24 47 -58 61 -75 14 -17 41 -53 59 -79 l34 -48 -20 -97 c-37 -188 -19 -416
47 -585 11 -26 19 -50 19 -53 0 -3 -29 24 -65 60 -143 146 -346 238 -570 261
-33 3 -69 9 -80 12 -14 4 -4 -12 30 -48 27 -30 52 -56 55 -59 5 -5 55 -74 209
-294 154 -219 287 -299 518 -313 l103 -6 -69 -72 c-177 -187 -255 -461 -199
-705 16 -73 121 -278 189 -370 186 -254 378 -375 785 -495 187 -56 264 -65
329 -41 83 32 124 88 244 330 61 121 117 246 126 276 32 111 46 235 41 372 -5
165 -29 265 -97 407 -44 91 -63 116 -142 196 -99 99 -168 145 -292 193 -105
40 -216 62 -346 69 l-106 6 66 62 c122 116 180 242 232 502 17 87 44 204 61
261 16 57 28 106 25 109 -6 6 -152 -59 -177 -79 -9 -7 -22 -14 -30 -16 -29 -7
-109 -69 -175 -137 -74 -76 -122 -149 -159 -239 l-22 -55 -33 72 c-54 119
-106 198 -228 343 -124 149 -213 276 -213 304 0 37 -15 29 -25 -14 l-10 -46
-79 100 c-113 143 -206 250 -316 358 -54 54 -229 213 -266 242 -284 225 -491
337 -724 391 -57 13 -302 18 -355 6 -16 -3 -43 -8 -60 -12 -251 -46 -462 -185
-606 -399 l-43 -65 -26 38 c-47 72 -153 196 -192 226 -21 17 -45 36 -53 43 -7
6 -47 30 -88 52 -106 57 -210 92 -347 116 -35 6 -248 11 -285 7z"/>
<path d="M2395 17091 c-173 -79 -172 -306 0 -390 126 -61 288 40 294 183 6
160 -152 272 -294 207z"/>
<path d="M22705 17092 c-158 -74 -167 -297 -16 -381 165 -91 359 65 304 246
-16 55 -57 104 -107 130 -48 25 -134 27 -181 5z"/>
<path d="M10514 15979 c-386 -95 -669 -460 -730 -944 -10 -75 -10 -260 -1
-341 17 -152 63 -308 128 -438 41 -81 110 -189 138 -217 9 -8 27 -28 41 -45
32 -38 134 -123 185 -155 63 -40 144 -75 220 -95 84 -22 276 -24 345 -4 25 7
51 15 58 16 7 1 48 19 90 39 211 100 384 296 485 551 70 177 95 311 95 519 0
143 -10 226 -44 359 -100 389 -376 688 -699 758 -83 18 -232 17 -311 -3z m301
-43 c33 -10 84 -31 114 -48 69 -40 173 -138 220 -208 83 -122 163 -332 185
-485 4 -22 8 -53 11 -70 15 -100 22 -377 11 -445 -4 -25 -15 -103 -21 -150
-21 -166 -114 -394 -211 -522 -254 -330 -661 -325 -911 12 -118 159 -194 381
-222 650 -8 75 -6 377 2 415 2 11 7 41 11 66 47 320 182 580 370 708 133 91
294 119 441 77z"/>
<path d="M10667 15124 c-4 -4 -7 -15 -7 -24 0 -9 -14 -44 -31 -78 -30 -61
-117 -152 -145 -152 -8 0 -14 -4 -14 -10 0 -5 7 -10 16 -10 8 0 41 -26 73 -57
44 -45 64 -75 86 -132 16 -40 31 -67 33 -60 38 120 95 203 161 236 l42 21 -43
25 c-67 39 -114 103 -146 197 -10 28 -21 48 -25 44z"/>
<path d="M11707 15972 c-20 -4 -20 -10 -8 -83 31 -176 35 -313 35 -1024 0
-729 -5 -868 -40 -1082 l-6 -41 132 0 132 1 -7 41 c-3 23 -9 61 -11 86 -3 25
-7 59 -10 75 -11 77 -18 262 -18 500 l-1 260 155 2 c85 1 175 5 200 8 25 3 68
8 95 11 l50 6 19 -54 c11 -29 22 -57 26 -63 4 -5 27 -55 50 -110 114 -268 195
-533 206 -670 3 -38 7 -75 9 -81 2 -8 46 -12 139 -12 151 0 144 -5 96 78 -14
25 -50 92 -80 150 -30 58 -68 131 -85 162 -33 63 -85 162 -177 338 -33 63 -80
152 -105 197 l-44 81 53 17 c107 35 210 97 283 170 112 111 164 235 168 394 3
186 -43 313 -157 426 -108 107 -237 165 -446 200 -61 10 -614 24 -653 17z
m533 -66 c218 -26 378 -111 454 -240 57 -97 71 -167 70 -346 0 -100 -5 -139
-23 -196 -47 -153 -148 -256 -300 -306 -124 -41 -203 -52 -396 -52 l-140 -1
-1 570 c0 314 1 573 2 576 4 8 258 3 334 -5z"/>
<path d="M13346 15972 l-228 -2 5 -23 c3 -12 8 -44 12 -72 3 -27 8 -64 10 -80
16 -122 20 -308 20 -940 0 -724 -3 -827 -30 -1009 -8 -55 -15 -100 -15 -101 0
-1 261 -2 580 -3 445 -1 580 2 581 11 3 35 0 149 -4 153 -2 2 -24 -7 -49 -21
-48 -27 -174 -63 -248 -71 -25 -2 -54 -6 -65 -9 -82 -17 -562 -26 -573 -11 -6
8 -9 2061 -3 2124 1 12 42 13 229 8 125 -4 238 -8 252 -10 14 -2 46 -7 70 -10
105 -14 189 -39 258 -76 l52 -28 1 36 c0 21 1 57 3 81 1 24 -3 45 -9 47 -14 5
-579 9 -849 6z"/>
<path d="M15696 15973 c-1 -1 -188 -3 -414 -3 -380 -1 -419 -3 -485 -22 -219
-60 -334 -200 -342 -412 -6 -168 75 -332 236 -480 35 -32 161 -131 279 -219
309 -232 422 -354 467 -507 18 -62 23 -173 11 -238 -13 -75 -57 -159 -107
-205 -48 -45 -134 -91 -192 -103 -59 -12 -182 -7 -241 10 -67 20 -162 80 -201
127 -37 45 -84 144 -92 194 -7 45 -8 193 -1 204 3 4 7 18 10 32 2 13 7 36 11
50 l7 27 -123 -2 -123 -1 0 -45 c1 -81 19 -195 41 -260 43 -129 116 -230 214
-298 45 -30 133 -70 174 -78 11 -2 43 -8 70 -13 69 -13 247 -5 320 14 286 76
432 298 391 595 -20 148 -158 349 -329 483 -16 12 -48 37 -70 55 -23 18 -49
39 -57 45 -8 7 -67 50 -130 96 -343 252 -450 396 -437 586 8 118 59 205 152
259 89 52 111 54 652 55 l501 1 -3 -917 c-1 -505 -5 -943 -9 -973 -11 -108
-26 -229 -32 -258 l-6 -30 128 0 c71 1 132 3 136 5 4 2 3 14 -1 26 -5 12 -12
53 -15 90 -4 37 -9 77 -11 87 -13 69 -18 330 -19 1099 l-2 874 116 -6 c126 -7
169 -12 245 -29 60 -13 143 -46 168 -66 21 -18 19 -24 22 71 l2 77 -326 0
c-179 1 -384 2 -454 3 -71 1 -130 1 -131 0z"/>
<path d="M8635 15933 c4 -21 9 -54 11 -73 2 -19 6 -48 8 -65 16 -116 20 -325
20 -935 0 -725 -4 -859 -34 -1045 -5 -33 -10 -63 -10 -67 0 -3 59 -6 131 -6
l131 1 -6 41 c-8 51 -23 186 -32 291 -4 44 -8 281 -8 528 l-2 447 372 0 c387
0 387 0 377 41 -4 14 -42 16 -370 15 -233 -1 -367 3 -371 9 -4 6 -7 191 -7
413 l0 404 230 -6 c126 -3 239 -8 250 -10 11 -2 45 -7 75 -11 88 -11 201 -44
258 -76 l52 -29 0 85 0 85 -541 0 -541 0 7 -37z"/>
<path d="M1708 15285 c-2 -2 -28 -5 -58 -8 -206 -20 -399 -113 -535 -258 -68
-72 -109 -134 -155 -233 -34 -71 -46 -109 -66 -201 -8 -40 -6 -151 6 -213 51
-285 248 -473 493 -473 97 0 129 7 216 49 67 32 150 113 179 175 74 157 49
352 -58 457 -42 41 -67 49 -88 28 -20 -20 -14 -38 33 -90 25 -28 48 -62 51
-77 4 -14 11 -31 15 -37 5 -6 7 -51 6 -100 -2 -70 -8 -99 -27 -136 -31 -64
-88 -119 -157 -154 -53 -27 -67 -29 -163 -29 -94 0 -111 3 -160 27 -75 37
-123 79 -169 146 -115 172 -132 370 -50 568 220 528 901 636 1441 228 270
-203 463 -472 784 -1091 43 -81 97 -183 121 -227 23 -43 43 -80 43 -82 0 -2
28 -50 61 -106 216 -363 445 -585 677 -658 l53 -17 -36 -49 c-21 -27 -79 -91
-130 -141 -61 -60 -102 -111 -119 -145 -35 -74 -57 -191 -63 -345 l-6 -133
-42 58 c-128 175 -385 350 -621 425 -277 88 -572 45 -863 -123 -57 -33 -108
-60 -112 -60 -5 0 -46 25 -93 55 -177 116 -294 153 -546 175 -317 27 -602 -41
-753 -180 l-51 -47 160 -6 c188 -7 269 -23 384 -79 71 -35 101 -58 185 -142
163 -164 230 -298 391 -781 56 -170 114 -339 128 -376 106 -281 257 -499 419
-605 40 -26 74 -49 76 -50 2 -2 -44 -74 -102 -161 -57 -87 -117 -183 -132
-213 -16 -30 -66 -162 -111 -293 -77 -218 -168 -437 -186 -445 -5 -2 -8 -10
-8 -18 0 -8 -4 -14 -9 -14 -5 0 -12 -9 -16 -20 -9 -27 -131 -149 -190 -190
-27 -19 -79 -45 -117 -60 -37 -15 -71 -29 -74 -33 -8 -8 57 -40 147 -72 79
-28 174 -58 174 -55 0 1 12 -3 28 -9 27 -11 50 -16 117 -27 19 -3 38 -8 41
-10 7 -4 51 -12 131 -23 77 -10 350 -7 369 4 7 5 27 10 44 12 42 4 185 55 185
65 0 5 3 7 8 4 4 -2 23 3 42 12 19 8 37 16 40 17 20 5 87 29 95 34 6 3 15 6
20 7 99 21 130 24 182 22 35 -2 63 -6 63 -10 0 -5 6 -8 14 -8 15 0 71 -24 100
-43 35 -22 121 -111 157 -162 39 -56 149 -232 149 -240 0 -2 28 -45 61 -96 60
-88 152 -178 208 -202 14 -7 28 -14 31 -18 10 -11 73 -39 78 -34 3 3 0 15 -6
28 -53 101 -66 382 -26 535 41 156 112 304 206 427 21 28 42 55 46 60 4 6 24
32 45 58 21 26 36 47 33 47 -3 0 5 11 17 24 12 13 33 44 46 68 12 23 33 61 46
83 13 21 21 43 19 47 -3 4 -1 8 5 8 5 0 14 15 20 33 6 19 20 51 31 72 11 21
17 42 14 46 -3 5 -1 9 4 9 11 0 55 154 74 255 20 107 16 372 -6 474 -10 47
-21 92 -24 100 -9 25 133 -97 257 -221 126 -125 211 -223 376 -433 60 -77 112
-142 115 -145 3 -3 30 -34 60 -70 30 -36 84 -96 122 -135 37 -38 64 -73 60
-77 -11 -10 -198 -66 -282 -84 -92 -19 -276 -22 -350 -5 -30 8 -81 26 -112 42
-32 16 -58 25 -58 20 0 -11 46 -129 101 -262 46 -110 141 -279 199 -353 21
-28 101 -116 177 -196 205 -216 242 -285 251 -465 8 -186 -40 -341 -197 -635
-198 -368 -232 -458 -281 -747 -27 -159 -51 -236 -111 -357 -71 -140 -119
-208 -223 -312 -100 -100 -170 -141 -258 -153 l-53 -8 48 -21 c182 -82 329
-115 507 -115 204 0 385 42 602 139 220 99 356 212 563 467 39 47 73 86 77 87
4 0 19 -21 32 -47 61 -122 212 -300 347 -413 319 -266 800 -438 1604 -575 17
-2 41 -7 55 -10 14 -3 52 -10 85 -16 52 -9 331 -64 375 -74 709 -159 1100
-403 1086 -677 -11 -214 -233 -335 -396 -217 -61 44 -86 111 -81 213 1 19 15
42 46 73 47 46 53 61 33 81 -48 48 -154 -61 -162 -168 -10 -132 55 -243 174
-298 115 -54 266 -26 354 64 83 84 114 165 112 283 -2 68 -7 89 -37 147 -120
237 -463 422 -1034 559 -104 25 -371 80 -444 91 -18 3 -43 7 -55 10 -11 2 -57
11 -101 19 -44 8 -103 20 -131 26 -28 5 -64 12 -80 15 -16 2 -51 9 -79 14 -27
6 -60 12 -73 15 -13 2 -31 6 -40 9 -9 3 -28 7 -42 10 -114 22 -385 94 -435
115 -11 5 -67 26 -125 46 -187 68 -348 151 -492 256 -156 114 -322 305 -411
473 -31 58 -34 52 73 143 151 130 278 166 385 111 52 -27 92 -66 233 -228 177
-205 273 -255 574 -300 158 -24 275 -53 331 -81 56 -29 130 -101 158 -154 13
-25 26 -45 29 -45 3 0 4 51 3 112 -3 159 -25 238 -128 443 -47 94 -94 197
-105 229 -30 89 -27 191 11 339 49 190 50 281 5 497 -36 176 -46 285 -31 350
27 125 154 232 293 246 66 7 117 -5 174 -42 21 -13 40 -24 42 -24 11 0 -16 66
-45 111 -97 151 -268 229 -502 229 -178 0 -255 -26 -540 -184 -56 -30 -124
-59 -155 -65 -62 -13 -255 -39 -260 -35 -2 1 6 53 17 116 22 125 43 188 125
386 69 169 91 282 83 426 -10 170 -45 264 -176 472 -108 172 -151 268 -151
336 0 34 -9 58 -22 58 -20 0 -108 -82 -154 -143 -67 -89 -87 -136 -123 -282
-18 -71 -42 -151 -53 -177 l-20 -48 -68 63 c-71 66 -147 109 -221 126 -64 15
-203 13 -284 -4 -38 -8 -73 -15 -76 -15 -19 0 -226 222 -310 330 -18 25 -41
54 -50 65 -9 11 -72 90 -140 175 -119 150 -376 417 -476 497 l-50 39 82 11
c247 34 481 205 667 488 47 72 87 135 89 140 10 26 166 252 184 267 11 10 17
17 13 18 -15 0 138 142 195 181 31 22 57 37 57 34 0 -3 17 5 38 18 54 34 137
67 166 67 45 0 36 17 -23 44 -32 14 -62 26 -66 26 -4 0 -21 6 -38 14 -199 86
-383 110 -539 71 l-23 -6 0 143 c0 161 -11 210 -76 339 -57 114 -145 224 -285
356 -192 180 -277 295 -310 418 -29 106 -7 211 61 297 35 44 44 68 24 68 -6 0
-63 -18 -127 -41 -271 -95 -393 -194 -477 -385 -21 -49 -40 -91 -41 -93 -6 -8
-114 34 -179 70 -174 94 -374 321 -537 609 -69 121 -114 205 -220 410 -114
219 -198 368 -301 534 -118 192 -326 426 -472 534 -38 28 -74 55 -80 60 -18
14 -149 87 -196 109 -103 48 -230 85 -339 98 -63 7 -198 14 -202 10z"/>
<path d="M23458 15285 c-2 -1 -36 -5 -76 -9 -338 -28 -700 -254 -968 -602 -58
-76 -184 -259 -184 -267 0 -3 -24 -45 -54 -95 -30 -49 -103 -182 -162 -294
-94 -179 -213 -401 -265 -495 -185 -333 -427 -578 -645 -653 -65 -23 -74 -24
-74 -10 0 6 -20 53 -44 104 -84 180 -218 282 -493 375 -51 17 -97 31 -103 31
-19 0 -10 -25 25 -68 102 -129 94 -298 -21 -469 -22 -32 -122 -141 -225 -243
-187 -187 -228 -239 -291 -365 -65 -131 -73 -165 -73 -328 l0 -147 -30 6
c-170 38 -345 7 -623 -108 -70 -29 -80 -39 -45 -44 45 -7 77 -19 180 -71 62
-31 130 -74 155 -97 57 -55 178 -186 171 -186 -3 0 1 -8 9 -17 22 -26 121
-173 137 -205 8 -16 18 -28 23 -28 4 0 8 -5 8 -12 0 -14 139 -221 151 -226 5
-2 9 -9 9 -16 0 -6 8 -19 18 -27 9 -9 42 -42 72 -74 133 -140 333 -244 499
-261 l69 -6 -61 -51 c-63 -52 -302 -287 -347 -342 -36 -43 -179 -218 -187
-230 -129 -172 -406 -485 -431 -485 -4 0 -39 7 -77 15 -81 17 -220 19 -284 4
-77 -17 -151 -60 -221 -125 l-68 -64 -21 49 c-11 27 -34 107 -51 176 -16 69
-42 150 -56 178 -35 71 -114 168 -176 218 -47 37 -53 39 -59 22 -4 -10 -8 -31
-8 -48 -2 -75 -47 -172 -175 -375 -114 -181 -156 -313 -156 -486 0 -143 25
-235 135 -502 41 -99 69 -202 90 -338 l6 -41 -33 4 c-122 15 -250 38 -289 53
-26 9 -109 52 -185 94 -195 109 -256 128 -424 134 -114 3 -148 1 -219 -17
-107 -27 -193 -75 -259 -145 -49 -51 -111 -160 -99 -172 3 -3 22 6 44 20 120
78 284 49 392 -70 94 -103 104 -200 46 -479 -46 -224 -46 -293 0 -485 60 -248
49 -315 -89 -580 -98 -189 -126 -285 -130 -442 -1 -65 0 -118 4 -118 3 0 14
16 23 35 23 48 79 108 135 144 67 42 154 67 337 96 197 32 263 48 338 86 86
42 161 106 262 221 154 175 178 199 230 226 75 39 144 36 237 -11 89 -44 245
-175 240 -202 -2 -10 -24 -52 -49 -94 -205 -340 -513 -563 -998 -720 -130 -43
-423 -120 -484 -127 -19 -3 -37 -6 -41 -9 -4 -2 -22 -7 -41 -10 -19 -3 -54
-10 -79 -15 -45 -10 -61 -13 -155 -30 -177 -32 -340 -62 -400 -75 -38 -8 -81
-16 -95 -19 -164 -29 -578 -144 -607 -168 -7 -6 -13 -8 -13 -5 0 17 -249 -102
-355 -171 -95 -61 -204 -175 -246 -259 -31 -62 -34 -74 -34 -157 0 -81 3 -98
31 -156 38 -81 100 -145 173 -178 114 -53 264 -27 350 59 105 106 115 292 19
380 -46 44 -73 53 -93 32 -24 -23 -18 -39 30 -86 25 -25 45 -53 46 -63 1 -11
2 -32 3 -49 3 -36 -26 -120 -51 -147 -110 -122 -323 -81 -402 77 -30 61 -37
160 -14 219 100 254 483 447 1178 592 123 26 147 31 190 38 36 7 137 25 160
30 31 6 187 35 220 40 273 48 664 148 835 213 41 16 78 30 82 31 74 23 287
132 389 200 207 139 370 310 475 498 20 35 39 64 42 63 4 0 39 -39 77 -86 222
-274 352 -379 604 -486 273 -117 559 -152 797 -97 86 20 314 101 314 111 0 4
-22 9 -49 11 -72 7 -150 50 -235 129 -98 92 -164 180 -231 310 -69 135 -98
223 -124 379 -48 283 -94 409 -259 709 -180 328 -229 480 -220 676 9 180 48
252 248 460 185 193 244 273 337 460 47 94 148 353 141 360 -3 3 -25 -6 -49
-19 -145 -80 -364 -80 -627 0 -152 46 -147 31 -47 137 48 50 150 171 227 267
219 276 290 358 396 465 124 125 186 183 237 220 22 17 44 34 48 40 5 6 7 4 4
-6 -38 -121 -54 -381 -33 -539 11 -90 49 -233 87 -327 40 -102 118 -253 131
-253 5 0 7 -4 3 -9 -3 -5 -1 -12 4 -16 6 -3 36 -43 68 -88 31 -45 61 -86 65
-92 67 -87 91 -121 126 -181 92 -154 148 -338 153 -504 2 -34 -10 -181 -16
-200 -2 -8 -7 -30 -10 -48 -3 -18 -12 -52 -20 -75 -8 -23 -13 -42 -12 -43 6
-6 130 63 176 99 66 51 113 109 182 225 106 178 233 354 281 390 9 7 23 19 30
26 20 19 73 45 127 62 98 30 186 14 417 -76 216 -85 300 -101 499 -96 130 4
166 7 260 27 28 6 61 13 75 15 55 10 156 37 165 44 6 4 53 22 105 40 115 40
173 68 165 79 -2 5 -17 12 -32 15 -42 10 -144 63 -177 91 -89 77 -149 142
-195 214 -28 44 -51 85 -51 90 0 6 -5 11 -12 11 -6 0 -9 3 -5 6 3 3 -9 40 -27
82 -18 43 -66 171 -105 286 -87 252 -104 286 -238 489 -58 87 -103 160 -101
161 1 1 33 21 70 45 148 95 287 282 393 531 20 47 85 231 144 410 172 519 257
689 422 845 154 145 276 190 547 201 89 4 162 10 162 13 0 11 -80 72 -138 107
-156 94 -396 135 -663 114 -247 -20 -366 -58 -546 -176 -71 -46 -90 -54 -107
-46 -12 5 -69 37 -128 70 -123 68 -251 113 -387 136 -216 36 -399 6 -627 -104
-163 -79 -362 -240 -451 -367 l-30 -42 -6 132 c-3 73 -13 168 -22 212 -26 128
-52 173 -158 277 -52 51 -111 115 -131 142 l-38 50 41 12 c83 24 199 87 271
147 55 45 169 158 198 196 15 19 34 42 42 51 8 9 20 24 25 32 6 9 44 67 86
129 41 63 97 155 123 204 93 173 124 231 180 339 109 208 160 301 193 354 18
29 33 54 33 56 0 10 107 178 163 256 312 432 682 653 1088 651 324 -1 590
-163 720 -437 50 -104 69 -181 69 -271 0 -100 -15 -164 -62 -262 -74 -155
-185 -238 -335 -248 -122 -9 -209 21 -291 99 -54 51 -80 111 -88 200 -9 102
13 171 74 239 35 40 43 54 38 74 -17 67 -131 -21 -173 -134 -37 -99 -28 -240
23 -350 36 -75 153 -164 264 -199 51 -17 166 -18 230 -3 236 56 405 307 401
596 -1 84 -5 109 -33 189 -78 227 -221 394 -427 496 -123 62 -229 87 -388 94
-40 2 -73 2 -75 1z"/>
<path d="M13505 15043 c-32 -18 -115 -92 -115 -104 0 -4 22 1 48 11 76 29 155
21 302 -30 147 -51 255 -60 322 -27 34 17 155 125 126 114 -73 -30 -128 -39
-208 -34 -47 4 -107 14 -135 22 -27 9 -54 18 -60 19 -5 1 -41 12 -79 24 -80
26 -159 28 -201 5z"/>
<path d="M15525 12958 c-387 -47 -738 -328 -938 -748 -57 -120 -106 -262 -123
-359 -3 -12 -11 -51 -19 -85 -21 -96 -29 -198 -29 -371 1 -183 7 -236 39 -390
88 -414 312 -773 605 -967 208 -138 378 -189 605 -184 72 2 141 6 155 10 14 3
34 8 45 10 86 17 264 93 324 138 28 22 49 23 70 4 24 -20 118 -69 181 -94 213
-83 455 -93 664 -27 394 126 714 486 857 965 27 90 56 231 66 321 18 164 6
471 -22 599 -3 14 -8 36 -11 50 -31 158 -112 362 -212 535 -80 139 -258 329
-393 418 -185 122 -362 179 -562 180 -199 2 -336 -33 -516 -130 -93 -50 -78
-50 -187 10 -33 19 -78 40 -100 47 -21 7 -43 16 -49 20 -10 8 -167 47 -195 49
-87 6 -206 5 -255 -1z m290 -68 c74 -19 185 -72 248 -119 31 -22 58 -44 60
-49 3 -4 -33 -46 -79 -92 -165 -165 -326 -448 -390 -685 -26 -99 -44 -173 -49
-213 -3 -20 -8 -62 -12 -92 -10 -69 -10 -385 -1 -465 5 -48 23 -141 42 -230
64 -283 238 -594 445 -790 62 -59 62 -57 -38 -124 -188 -126 -392 -156 -604
-91 -346 107 -610 491 -702 1018 -9 51 -18 117 -21 145 -2 29 -7 72 -9 97 -6
57 -6 363 -1 410 3 19 7 62 10 95 3 33 8 69 10 80 2 11 7 42 10 68 10 64 12
74 26 127 7 25 13 52 15 60 17 89 103 304 161 403 76 129 195 264 296 335 67
46 161 89 248 111 85 21 253 22 335 1z m1138 4 c26 -7 47 -9 47 -6 0 3 5 1 12
-6 7 -7 19 -12 28 -12 19 0 136 -59 181 -91 177 -126 324 -341 415 -605 19
-57 37 -112 39 -122 17 -68 46 -215 51 -252 2 -25 7 -52 9 -60 21 -80 21 -626
0 -660 -2 -3 -6 -32 -10 -65 -14 -129 -73 -347 -132 -485 -206 -481 -582 -708
-982 -594 -90 26 -197 84 -269 148 l-22 20 62 60 c245 237 407 563 468 941 30
189 30 426 0 605 -5 30 -11 67 -14 81 -2 15 -16 71 -31 125 -78 288 -223 544
-410 727 l-77 75 54 40 c97 73 200 119 318 141 65 12 207 10 263 -5z m-687
-326 c16 -24 32 -45 35 -48 8 -7 72 -120 91 -160 87 -188 123 -308 163 -535
35 -200 39 -541 10 -775 -27 -219 -130 -540 -217 -677 -62 -98 -100 -152 -113
-163 -14 -12 -63 48 -125 155 -62 107 -145 307 -164 398 -3 12 -11 49 -19 82
-42 182 -60 343 -61 555 0 98 11 306 18 350 3 14 10 54 17 90 6 36 13 79 16
95 2 17 11 54 20 84 8 29 16 59 17 65 15 88 141 361 206 448 19 25 41 55 49
66 18 25 20 24 57 -30z"/>
<path d="M7180 12815 l0 -115 43 27 c157 100 305 138 573 149 l141 6 -3 -1243
c-1 -684 -5 -1260 -7 -1279 -3 -19 -8 -75 -12 -123 -4 -49 -8 -98 -10 -110 -2
-12 -6 -47 -10 -78 -3 -31 -8 -67 -10 -80 -3 -13 -8 -39 -11 -56 l-6 -33 186
0 186 0 -9 23 c-7 18 -16 70 -26 147 -1 8 -6 51 -10 95 -4 44 -9 91 -11 105
-13 109 -18 482 -18 1475 l-1 1150 115 0 c257 -2 451 -49 598 -147 l42 -29 0
116 0 115 -870 0 -870 0 0 -115z"/>
<path d="M9660 12924 c0 -3 16 -57 35 -120 l34 -113 -19 -58 c-22 -70 -165
-534 -190 -618 -10 -33 -50 -163 -89 -290 -40 -126 -74 -237 -76 -245 -2 -8
-18 -60 -35 -115 -17 -55 -33 -104 -34 -110 -3 -16 -46 -156 -61 -200 -12 -35
-57 -182 -60 -195 -1 -3 -10 -32 -20 -65 -10 -33 -20 -64 -21 -70 -2 -5 -23
-75 -48 -155 -25 -80 -83 -268 -129 -417 l-84 -273 184 0 c100 0 183 1 183 3
0 1 -7 25 -16 52 -8 28 -17 68 -20 90 -3 22 -7 46 -9 52 -2 7 39 66 93 131 53
66 113 139 132 162 19 24 70 87 113 139 43 53 83 103 90 111 31 38 103 126
107 130 3 3 43 52 90 110 47 58 92 114 102 125 56 67 178 218 208 258 19 25
37 47 40 47 9 0 194 -630 215 -734 3 -10 14 -55 25 -99 12 -45 24 -99 27 -121
3 -23 9 -48 14 -57 4 -9 6 -18 4 -21 -3 -2 0 -20 5 -39 21 -70 30 -243 17
-306 l-6 -33 214 0 c123 0 215 4 215 9 0 5 -13 49 -29 98 -26 80 -49 154 -158
498 -19 61 -38 119 -42 130 -10 26 -70 217 -72 230 -1 6 -17 55 -36 110 -19
55 -36 107 -38 115 -2 8 -55 179 -120 380 -226 709 -280 902 -321 1150 -20
117 -19 264 1 313 7 16 -7 17 -204 17 -116 0 -211 -3 -211 -6z m148 -486 c17
-57 87 -285 157 -508 70 -223 137 -441 151 -484 l24 -79 -77 -96 c-43 -53 -80
-98 -83 -101 -3 -3 -23 -27 -45 -55 -22 -27 -44 -55 -50 -61 -5 -6 -23 -28
-40 -49 -16 -21 -35 -43 -40 -49 -6 -6 -49 -58 -95 -116 -47 -57 -95 -116
-107 -130 -11 -14 -67 -81 -123 -150 -56 -69 -109 -134 -118 -145 -10 -11 -55
-66 -101 -122 -46 -57 -85 -103 -86 -103 -1 0 0 30 2 68 11 220 75 534 210
1032 102 376 370 1250 384 1250 4 0 20 -46 37 -102z"/>
<path d="M10773 12816 l-1 -114 48 29 c107 66 249 116 380 133 25 4 109 9 188
12 l143 7 -4 -1249 c-2 -687 -7 -1274 -10 -1304 -3 -30 -9 -84 -12 -120 -3
-36 -8 -76 -10 -90 -2 -14 -7 -50 -10 -81 -3 -31 -8 -65 -10 -75 -2 -11 -7
-34 -11 -51 l-6 -33 187 0 c174 0 187 1 180 18 -9 23 -14 48 -21 102 -3 25 -7
56 -9 70 -2 14 -6 57 -10 95 -3 39 -8 88 -10 110 -14 149 -18 464 -17 1460 0
622 1 1134 1 1139 1 8 262 2 306 -8 11 -2 41 -7 67 -10 98 -13 251 -70 326
-121 20 -14 40 -25 44 -25 5 0 8 50 8 110 l0 110 -868 0 -868 0 -1 -114z"/>
<path d="M12625 12815 c0 -112 0 -114 20 -101 163 107 328 152 588 162 l148 6
-4 -1278 c-2 -704 -7 -1295 -10 -1314 -3 -19 -8 -64 -11 -99 -14 -149 -31
-266 -43 -297 -4 -12 23 -14 181 -14 l186 0 -4 23 c-3 12 -8 36 -11 52 -4 17
-9 48 -11 70 -2 22 -6 54 -9 70 -2 17 -7 59 -10 95 -3 36 -9 90 -12 120 -3 30
-8 621 -10 1314 l-4 1259 143 -7 c79 -3 159 -8 178 -11 154 -22 296 -72 405
-144 l31 -20 -1 114 0 115 -870 0 -870 0 0 -115z"/>
<path d="M12527 8519 c-47 -11 -124 -51 -159 -82 -76 -69 -138 -196 -138 -282
l0 -33 -70 24 c-83 29 -198 33 -276 10 -68 -21 -155 -85 -193 -143 -47 -71
-65 -142 -58 -239 6 -111 47 -194 133 -272 l62 -57 -64 -58 c-45 -41 -73 -77
-96 -125 -30 -63 -33 -74 -33 -172 0 -95 3 -110 29 -163 66 -135 189 -207 350
-207 59 0 99 7 149 24 l67 24 0 -32 c0 -18 7 -56 15 -84 43 -145 160 -256 298
-283 l52 -11 0 -953 c0 -524 -3 -951 -7 -948 -5 2 -8 11 -8 20 0 9 -24 89 -54
177 -115 343 -219 568 -411 894 -229 388 -630 746 -1049 934 -75 35 -77 36
-48 43 47 10 144 77 185 127 53 64 80 132 85 214 13 204 -127 369 -344 405
l-71 12 21 51 c16 40 20 73 20 151 0 91 -3 106 -31 167 -38 82 -100 146 -179
183 -81 39 -208 42 -301 6 -66 -24 -175 -114 -202 -164 l-14 -27 -23 31 c-52
71 -155 138 -244 158 -178 41 -345 -40 -423 -207 -29 -61 -32 -76 -32 -167 0
-85 4 -109 26 -161 l26 -61 -59 -11 c-127 -24 -244 -108 -295 -213 -93 -189
-15 -411 175 -507 35 -17 84 -34 110 -37 97 -13 94 -10 77 -53 -24 -56 -36
-173 -25 -234 39 -208 219 -340 421 -309 112 18 210 78 279 173 l27 37 50 -58
c139 -157 384 -183 538 -56 115 94 163 263 121 423 -8 28 -10 52 -5 52 10 0
189 -79 204 -90 6 -4 42 -25 80 -46 313 -170 616 -466 835 -816 225 -361 434
-890 521 -1318 20 -104 21 -121 20 -1315 0 -665 0 -1219 -1 -1230 -1 -11 -14
25 -29 80 -41 147 -106 329 -180 505 l-65 155 1 110 c0 61 2 196 4 300 l4 190
-37 115 c-43 134 -58 216 -58 320 0 116 -18 254 -40 321 -11 33 -49 120 -84
192 -77 161 -74 153 -136 362 -60 200 -103 286 -185 369 -85 87 -113 105 -365
239 -113 60 -136 73 -172 95 -43 27 -112 76 -126 90 -8 7 -30 25 -50 40 -21
15 -50 39 -67 54 -16 16 -35 28 -41 28 -7 0 -14 7 -18 15 -3 8 -12 15 -20 15
-8 0 -16 4 -18 8 -3 8 -90 70 -153 109 -46 29 -101 57 -107 55 -5 -1 -8 2 -8
7 0 5 -26 19 -57 31 -32 12 -72 27 -88 34 -17 8 -46 17 -65 22 -43 10 -37 8
-85 21 -22 6 -47 11 -55 11 -8 1 -34 4 -57 8 -63 10 -53 -9 15 -31 31 -11 64
-25 73 -32 9 -7 19 -10 22 -6 4 3 7 2 7 -4 0 -5 11 -15 24 -21 23 -10 36 -20
92 -69 49 -43 110 -167 120 -243 1 -8 5 -31 9 -50 11 -56 13 -78 20 -215 8
-163 14 -246 18 -265 26 -107 71 -193 136 -259 30 -31 56 -62 57 -69 2 -8 5
-46 8 -85 9 -99 16 -158 24 -182 6 -21 8 -27 16 -60 35 -145 137 -291 274
-389 52 -37 56 -47 53 -106 -1 -14 3 -48 9 -75 7 -28 13 -58 16 -69 7 -38 65
-151 108 -210 50 -69 145 -163 226 -222 30 -22 134 -90 230 -152 200 -126 379
-265 423 -329 71 -100 278 -675 302 -838 4 -22 8 -48 11 -57 6 -19 6 -22 28
-153 32 -198 38 -288 38 -585 0 -168 -1 -314 -1 -325 -1 -11 -16 11 -34 50
-75 162 -167 307 -281 442 -105 125 -292 311 -409 406 -50 40 -67 65 -114 155
-83 162 -153 260 -296 410 -135 141 -208 243 -347 482 -135 234 -255 347 -502
474 -210 109 -260 141 -401 253 -250 201 -280 214 -632 276 -67 12 -117 33
-268 108 -86 43 -160 79 -165 80 -4 1 -42 19 -84 40 -82 40 -240 104 -279 114
-201 47 -318 55 -474 34 -219 -30 -335 -38 -610 -44 -328 -7 -326 -6 -560 -50
-230 -43 -388 -65 -471 -65 -40 0 -63 -4 -59 -10 3 -5 48 -23 100 -39 107 -33
138 -50 328 -179 83 -56 203 -124 302 -172 183 -88 218 -117 314 -250 29 -41
77 -94 106 -118 63 -50 209 -134 278 -159 42 -15 52 -25 74 -68 51 -100 158
-253 175 -247 4 1 8 -2 8 -7 0 -25 188 -135 325 -192 27 -12 117 -41 135 -44
8 -2 16 -4 18 -5 1 -2 5 -3 10 -4 4 -2 25 -7 47 -14 52 -14 87 -22 158 -33
169 -26 225 -49 399 -162 122 -78 225 -119 377 -147 71 -13 285 -15 371 -3 92
13 210 -8 248 -45 12 -11 19 -13 37 -12 3 1 13 -6 21 -15 9 -8 24 -15 35 -15
10 0 19 -4 19 -9 0 -5 15 -14 33 -21 17 -7 52 -22 77 -33 66 -30 83 -37 105
-40 11 -2 27 -7 35 -10 21 -8 88 -25 129 -32 19 -3 37 -8 40 -10 4 -2 29 -6
56 -9 27 -4 57 -8 65 -10 8 -3 35 -7 60 -10 25 -3 54 -8 65 -10 18 -3 73 -12
135 -21 40 -6 83 -14 110 -21 14 -3 34 -7 45 -9 11 -2 31 -7 45 -10 14 -3 30
-7 35 -8 6 -2 15 -5 20 -8 6 -4 28 -12 50 -19 172 -52 228 -91 460 -324 234
-235 370 -439 505 -761 19 -44 41 -87 49 -97 21 -22 58 -8 71 27 6 15 21 51
35 81 14 30 25 57 25 59 0 3 20 44 44 92 132 265 219 386 431 599 191 192 257
246 345 281 76 31 191 70 226 77 10 3 39 9 64 15 59 13 79 16 272 46 386 60
465 83 732 217 l141 71 145 -9 c190 -11 305 -7 415 15 125 25 209 61 360 154
165 102 195 114 333 138 277 47 493 124 658 235 104 70 160 137 245 297 35 67
37 69 114 102 106 47 224 119 279 172 26 24 71 80 102 123 30 44 72 94 92 110
20 17 118 71 217 120 99 49 223 119 275 156 155 109 229 151 333 184 53 18
100 36 103 41 3 5 -24 9 -59 9 -78 0 -225 20 -467 64 -254 47 -243 46 -630 56
-218 6 -376 15 -430 25 -47 8 -150 17 -230 21 -251 11 -373 -25 -810 -237
l-265 -129 -177 -34 c-260 -51 -301 -71 -535 -259 -132 -106 -211 -157 -297
-195 -81 -36 -249 -134 -322 -188 -118 -87 -193 -182 -324 -409 -106 -183
-174 -275 -310 -420 -139 -147 -218 -256 -301 -419 -29 -56 -62 -108 -73 -116
-83 -59 -371 -343 -461 -455 -87 -108 -177 -248 -246 -385 -28 -55 -51 -100
-53 -100 -5 0 1 668 7 695 3 17 8 53 12 80 10 79 15 114 31 205 8 47 17 99 20
115 36 214 244 795 317 889 44 55 226 199 364 285 234 148 313 204 382 267
161 149 261 341 261 504 l0 55 56 40 c72 51 166 151 204 218 60 104 94 244
113 468 4 40 11 52 54 92 53 50 103 133 129 214 9 30 19 120 24 235 14 282 43
429 103 525 49 78 162 159 275 199 28 10 52 22 52 27 0 12 -98 -1 -193 -24
-205 -51 -384 -151 -662 -369 -157 -124 -211 -158 -385 -251 -197 -104 -276
-156 -353 -234 -81 -81 -126 -168 -177 -340 -61 -208 -75 -246 -156 -415 -40
-86 -80 -185 -88 -220 -8 -36 -20 -146 -25 -245 -10 -168 -27 -269 -61 -360
-6 -15 -17 -59 -26 -98 -17 -73 -17 -83 2 -452 7 -126 5 -134 -56 -270 -13
-30 -74 -188 -113 -295 -39 -106 -97 -300 -97 -323 0 -9 -4 -18 -8 -21 -4 -2
-7 552 -7 1232 l2 1237 27 120 c15 66 29 129 32 140 18 88 121 396 186 560
121 301 286 598 462 830 72 95 273 299 371 377 76 59 261 185 310 210 17 8 67
34 111 56 45 23 104 50 131 61 l49 19 -18 -51 c-22 -65 -23 -184 -3 -252 19
-62 75 -145 123 -182 161 -123 378 -101 530 55 34 35 62 59 62 54 0 -23 113
-131 167 -160 232 -123 504 6 552 263 11 60 -3 194 -25 237 -8 16 -13 32 -10
37 3 4 33 11 67 14 165 15 323 168 344 333 25 198 -123 387 -332 426 l-61 11
19 42 c10 23 24 74 31 113 39 227 -110 428 -332 449 -133 13 -295 -64 -366
-172 l-16 -25 -27 38 c-187 255 -542 236 -674 -38 -29 -60 -31 -73 -31 -165 0
-77 5 -111 20 -151 l21 -51 -71 -12 c-92 -15 -158 -46 -223 -105 -166 -150
-161 -420 11 -560 47 -39 131 -86 155 -87 14 0 14 -1 1 -6 -36 -14 -258 -127
-314 -160 -88 -54 -271 -190 -346 -259 -219 -199 -375 -398 -543 -694 -30 -52
-167 -328 -167 -336 0 -3 -6 -20 -14 -37 -45 -99 -110 -271 -151 -402 -26 -82
-50 -158 -54 -169 -4 -10 -7 416 -7 948 l0 966 20 0 c36 0 139 56 183 99 72
70 123 178 123 263 l0 36 68 -24 c177 -62 380 -5 472 134 46 69 63 140 58 236
-6 112 -45 193 -132 273 l-64 58 64 58 c45 41 73 78 96 125 31 63 33 73 33
177 0 117 -11 152 -72 232 -31 40 -115 98 -173 118 -70 25 -195 21 -280 -9
l-70 -24 0 37 c0 20 -7 58 -15 85 -61 202 -261 322 -458 275z"/>
<path d="M3330 7595 c-5 -79 -77 -250 -145 -341 -83 -111 -230 -223 -347 -266
l-60 -22 78 -26 c182 -60 311 -169 409 -345 39 -70 94 -217 95 -252 0 -24 16
-33 17 -10 0 6 4 28 7 47 60 318 220 522 455 580 58 14 79 25 39 20 -2 0 -28
8 -58 18 -167 58 -300 181 -390 362 -34 67 -68 156 -76 199 -3 14 -9 32 -14
40 -8 14 -10 13 -10 -4z"/>
<path d="M21905 7524 c-56 -180 -147 -325 -262 -416 -80 -64 -138 -94 -225
-118 l-63 -17 50 -7 c148 -22 290 -130 376 -285 52 -95 105 -257 108 -333 1
-22 21 -24 21 -2 0 28 52 167 87 234 82 153 184 256 323 323 41 20 94 40 118
46 44 9 67 21 42 21 -8 0 -48 16 -89 37 -223 108 -380 298 -440 535 l-18 70
-28 -88z"/>
<path d="M6057 4967 c-42 -143 -154 -268 -292 -327 -51 -22 -54 -25 -24 -27
49 -4 152 -64 207 -121 65 -66 95 -118 127 -214 l21 -67 17 71 c22 90 68 184
115 235 36 40 122 100 122 86 0 -4 5 -2 12 5 7 7 22 12 35 12 13 0 23 5 23 12
0 6 -3 9 -6 5 -8 -7 -103 35 -134 59 -85 68 -146 160 -187 281 l-18 52 -18
-62z"/>
<path d="M19181 4988 c-50 -170 -161 -297 -305 -348 -45 -16 -47 -19 -21 -19
48 -2 132 -47 179 -95 63 -66 104 -155 132 -286 8 -37 12 -36 20 6 10 58 68
173 114 225 22 26 63 62 92 81 55 36 142 71 152 60 3 -3 6 -2 6 1 0 4 -26 19
-57 33 -57 26 -130 78 -166 119 -58 65 -111 166 -124 235 -6 36 -8 35 -22 -12z"/>
</g>
</svg>
